<?xml version="1.0" encoding="UTF-8"?>
<svg width="376px" height="376px" viewBox="0 0 376 376" version="1.1" xmlns="http://www.w3.org/2000/svg" xmlns:xlink="http://www.w3.org/1999/xlink">
    <!-- Generator: Sketch 47.1 (45422) - http://www.bohemiancoding.com/sketch -->
    <title>LOGO</title>
    <desc>Created with Sketch.</desc>
    <defs></defs>
    <g id="Page-1" stroke="none" stroke-width="1" fill="none" fill-rule="evenodd">
        <g id="Desktop-HD" transform="translate(-532.000000, -324.000000)">
            <g id="LOGO" transform="translate(532.000000, 324.000000)">
                <circle id="Oval" fill="#FFFBC7" cx="188" cy="188" r="188"></circle>
                <circle id="Oval" fill="#E0FFF8" cx="235.5" cy="184.5" r="64.5"></circle>
                <circle id="Oval" fill="#FFA4AF" cx="153.5" cy="276.5" r="27.5"></circle>
                <circle id="Oval" fill="#EFFFDF" cx="125.5" cy="204.5" r="64.5"></circle>
                <path d="M56.6064498,229.767984 C57.5314213,198.264542 96.9577481,164.909362 127.958012,162.990641 C151.690457,161.521752 178.307927,176.085753 181.641606,202.553141 C188.119508,253.98376 111.626887,270.370519 76.3681685,251.365641 C57.8062777,241.360556 61.7904417,211.895907 62.235356,196.646891 C62.3438858,192.927138 63.1065219,189.144118 64.6025435,185.736734 C69.9538026,173.548547 78.9829496,162.911277 88.3173873,153.685953 C99.3760374,142.756572 109.667175,136.398316 124.594731,130.600016 C142.435779,123.67003 160.622486,117.583259 179.0127,112.279703 C185.232076,110.486097 191.748191,109.712898 198.211919,109.369547 C207.243394,108.889797 216.388743,108.531154 225.340825,109.818766 C231.234291,110.666445 236.795517,113.216463 242.208012,115.697672 C248.4123,118.541857 254.237842,122.164149 260.055669,125.732828 C263.807155,128.034006 267.522932,130.446094 270.883794,133.287516 C274.610249,136.438027 278.101555,139.89856 281.235356,143.639078 C284.15277,147.121315 286.757699,150.893401 288.961919,154.865641 C291.350205,159.169588 293.422637,163.683864 294.954106,168.361734 C296.448999,172.927881 297.426124,177.680534 297.993169,182.451578 C303.755693,230.936777 245.190414,282.168889 208.278325,234.369547 C172.997104,188.682099 255.336569,101.6118 295.903325,167.549234 C301.498981,176.644445 301.910558,187.138563 302.309575,197.760172 C303.292268,223.918924 300.469683,232.654273 290.090825,258.557047 C282.587008,277.284508 266.630899,289.264611 249.7002,298.857828 C242.604587,302.878321 235.110188,306.201175 227.520512,309.185953 C221.615563,311.508182 215.534602,313.492113 209.313481,314.740641 C195.540726,317.50472 181.655279,319.889422 167.66895,321.197672 C158.579719,322.047859 149.400714,321.633798 140.282231,321.197672 C136.947661,321.038183 133.567498,320.548044 130.426762,319.416422 C114.365566,313.629499 98.1748841,307.986943 82.8330123,300.498453 C78.4834857,298.375415 74.8693324,294.743868 71.9580123,290.877359 C68.0561379,285.695301 64.4809422,279.997745 62.7001998,273.760172 C53.6835008,242.176539 33.4988791,182.491237 50.6845748,146.408609 C57.8678668,131.326762 74.9626522,105.186489 86.5869185,94.666422 C136.365819,49.6160635 228.778751,27.5797093 286.586919,68.853922 C305.375773,82.2688977 324.971694,120.189802 332.165044,141.252359 C339.700428,163.316416 339.802253,188.994098 338.290044,212.014078 C338.019505,216.132412 339.884268,223.683937 335.782231,224.139078 C331.866405,224.573559 336.356359,216.170282 335.508794,212.322672 C332.111332,196.899558 328.0002,181.611648 323.10645,166.596109 C321.475442,161.591675 318.810073,156.946803 316.008794,152.490641 C312.446366,146.823674 308.526411,141.340548 304.083012,136.334391 C295.185635,126.310157 286.044239,116.441115 276.067387,107.490641 C272.462759,104.256842 267.968949,102.124127 263.60645,100.021891 C260.805609,98.6721992 257.791817,97.6539596 254.715825,97.2015782 C249.776712,96.4751905 244.741054,96.267869 239.754887,96.5140782 C237.133523,96.6435172 229.517256,97.8039367 232.090825,98.3187657 L232.090825,100.252359 C237.813009,101.397053 243.86005,100.419827 249.528325,101.807047 C261.734799,104.794387 277.996253,123.634225 279.364262,135.885172 C279.422351,136.405376 278.210293,136.202418 277.79395,135.885172 L268.786137,123.088297 C264.643715,119.931841 259.018551,119.465546 254.079106,117.814859 C251.366811,116.908452 248.693905,115.615394 245.840825,115.420328 C233.682279,114.589047 221.445976,113.940216 209.286137,114.752359 C208.064708,114.833938 208.492132,117.219229 207.532231,117.978922 C202.688165,121.812657 196.974726,124.45754 192.149419,128.314859 C191.279396,129.010349 189.676544,131.462838 190.786137,131.365641 C205.613113,130.066834 236.697475,115.875132 233.922856,145.092203 C233.749706,146.915489 230.188237,144.746525 228.555669,143.916422 C225.645394,142.43665 223.735818,138.955687 220.540044,138.287516 C214.90046,137.108393 208.994292,138.080288 203.258794,138.627359 C198.719077,139.060373 194.21456,139.980255 189.8252,141.217203 C180.436525,143.862989 171.710499,149.407217 161.993169,150.256266 C159.802723,150.447655 158.80288,143.970001 160.989262,143.736734 C169.009346,142.881066 178.537142,153.380885 179.004887,160.588297 C179.124382,162.429564 175.225388,160.654933 173.500981,159.998453 C169.518261,158.482236 166.135142,155.607371 162.125981,154.162516 C159.348884,153.161682 156.333624,152.859975 153.383794,152.748453 C132.544047,151.960583 111.683286,151.89366 90.8330123,151.467203 C86.4710203,151.377986 99.6169558,151.010248 103.91895,151.736734 C105.591843,152.019239 106.952832,153.316278 108.250981,154.408609 C109.917767,155.811131 111.969907,157.120637 112.739262,159.158609 C113.669269,161.622137 113.80467,164.538168 113.024419,167.053141 C112.754344,167.923667 111.137474,167.388728 110.290044,167.053141 C106.176769,165.424262 102.717859,161.986423 98.3564498,161.244547 C91.6217586,160.098976 84.6668876,160.910869 77.8642623,161.537516 C75.4844615,161.756739 73.0711417,162.488234 71.047856,163.760172 C68.677195,165.250487 62.5491387,168.295154 65.0205123,169.611734 C69.2382552,171.858663 74.5122813,167.854277 79.282231,168.146891 C100.033087,169.419855 89.69178,176.394442 80.875981,178.978922 C72.7720249,181.354715 63.9791524,177.351124 55.5595748,178.006266 C53.8180444,178.141777 52.5374613,179.894638 51.4580123,181.267984 C50.6697797,182.270826 48.9234606,184.577188 50.1650435,184.869547 C60.5307653,187.310395 63.3528479,179.476528 67.4775435,188.307047 C68.029403,189.488517 69.2739043,191.985793 67.985356,192.185953 C62.0326855,193.110627 55.3446834,188.348499 49.9501998,191.029703 C45.2258766,193.377819 44.5543684,200.120712 42.3642623,204.920328 C41.7408627,206.286508 40.142826,208.945917 41.5869185,209.357828 C69.9275058,217.441669 57.866439,211.910652 76.6845748,203.549234 C94.5639086,195.604953 115.292333,191.974945 134.778325,193.994547 C142.718618,194.817509 144.749068,221.733665 125.79395,218.264078 C109.328205,215.250152 130.787586,184.285495 142.35645,195.498453 C150.394704,203.289417 136.151185,223.99962 127.3877,225.912516 C124.567638,226.528079 120.456906,229.228345 118.782231,226.877359 C112.830981,218.52272 121.191399,202.391792 127.563481,196.928141 C129.872571,194.948244 140.920722,190.919765 141.926762,196.904703 C143.044621,203.554845 139.764935,212.653535 134.274419,216.748453 C131.284556,218.978342 126.639445,225.545789 124.622075,222.408609 C120.502419,216.002202 122.418072,207.171434 123.247075,199.600016 C125.701143,177.186601 167.596188,198.993765 176.977544,199.697672 C198.835861,201.337757 220.794197,202.429013 242.704106,201.771891 C248.772272,201.589894 254.737281,199.552146 260.333012,197.197672 C263.177499,196.000819 265.850866,193.946109 267.500981,191.338297 C268.475704,189.797862 268.823241,187.124399 267.500981,185.869547 C254.198359,173.245076 241.639997,197.622512 245.532231,203.576578 C251.791882,213.152152 274.146175,202.610798 267.907231,191.006266 C267.002709,189.323841 264.708063,188.768533 262.85645,188.299234 C237.374533,181.840737 235.797249,217.831277 263.0752,203.775797 C265.748501,202.398328 267.879962,199.990435 269.540044,197.482828 C270.347882,196.262563 270.079666,194.594089 270.122075,193.131266 C270.182919,191.032512 270.721466,188.747915 269.848637,186.838297 C261.03804,167.562038 238.223388,200.891443 244.536137,211.900797 C246.884973,215.997136 271.3569,204.833167 272.114262,200.877359 C273.481461,193.736289 248.057932,181.233743 245.516606,182.928141 C240.432725,186.317756 242.832708,194.863498 241.969731,200.912516 C241.72817,202.605736 241.531494,204.471733 242.219731,206.037516 C242.66418,207.048665 243.909253,207.721847 245.008794,207.826578 C255.082468,208.786097 269.451313,206.225197 276.60645,197.951578 C277.671657,196.71986 277.86548,194.556741 277.145512,193.096109 C276.502842,191.792295 271.227956,182.453538 266.422856,184.748453 C236.239276,199.164125 230.447639,202.125254 214.91895,231.525797 C193.552941,271.978165 197.879894,299.871793 147.60645,297.967203 C135.511436,297.508988 139.876477,274.602013 149.118169,279.404703 C157.844865,283.939763 154.068218,297.806758 143.938481,296.810953 C141.209325,296.542663 138.728036,290.043815 138.473637,288.955484 C134.758599,273.062369 151.97184,273.607261 153.309575,283.560953 C153.842021,287.52273 154.482392,291.731665 153.309575,295.553141 C152.19904,299.171678 148.955408,301.745849 146.778325,304.842203" id="Path" stroke="#3F3F3F" stroke-width="2"></path>
            </g>
        </g>
    </g>
</svg>